<svg class="logo" xmlns="http://www.w3.org/2000/svg" viewBox="0 0 612 568.93"><path d="M305.75,346.38c83.9,0,155.06,55.64,178.64,132H471.17C448,409.06,382.65,358.94,305.75,358.94S163.47,409.06,140.34,478.38H127.11c23.59-76.37,94.74-132,178.64-132m.7,23.79c-70.15,0-130,45.19-152.51,108.21h13.34c21.9-55.94,76-95.65,139.17-95.65s117.27,39.7,139.17,95.65H459c-22.5-63-82.36-108.21-152.51-108.21m-.15,25c-55.76,0-103.78,34.27-124.81,83.17H195.1c20.16-41.77,62.42-70.61,111.2-70.61s91,28.83,111.2,70.61H431.1c-21-48.9-69-83.17-124.8-83.17m43.38-67.83-42.45-101L264.31,327C302.94,319.48,334.82,324,349.68,327.38Zm-117.44,8.85c5.17-1.94,11.58-4.25,16.94-5.79l52.32-119.75-6.91-16.79Zm-34.58,16.67q8.69-5.21,17.89-9.6l72.54-165.54L281.35,161Zm-43,34.09A212.84,212.84,0,0,1,178,366.28l96.49-222.42-7.74-19.26Zm355.58,91.4h-13.1c-33.11-90.5-100.48-143-190.86-143-58.49,0-110.43,26.51-149,65.09-23.47,23.47-42.89,77.88-42.89,77.88H101.76L266.27,90.54,364,330.89c5.34,1.51,10.61,3.19,15.77,5.1L279.63,90.54H293L396.4,343q9.17,4.33,17.84,9.49l-107.89-262h13.36l114.1,275.12c14.95,11.81,22.92,20.94,22.92,20.94L333.06,90.54h13.36Z" style="fill: #0066e3;"></path></svg>