<svg id="Layer_1" data-name="Layer 1" xmlns="http://www.w3.org/2000/svg" viewBox="0 0 408.48 408.48"><title>Artboard 1</title><path d="M204,266.19c83.9,0,155.06,55.64,178.64,132H369.41C346.24,328.87,280.89,278.75,204,278.75S61.71,328.87,38.58,398.19H25.35c23.59-76.37,94.74-132,178.64-132m.7,23.79c-70.15,0-130,45.19-152.51,108.21H65.52c21.9-55.94,76-95.65,139.17-95.65S322,342.24,343.86,398.19h13.38C334.74,335.19,274.88,290,204.73,290m-.15,25c-55.76,0-103.78,34.27-124.81,83.17H93.34c20.16-41.77,62.42-70.61,111.2-70.61s91,28.83,111.2,70.61h13.6c-21-48.9-69-83.17-124.8-83.17m43.38-67.83-42.45-101L162.55,246.81c38.63-7.52,70.51-3,85.37.38ZM130.48,256c5.17-1.94,11.58-4.25,16.94-5.79l52.32-119.75-6.91-16.79ZM95.9,272.67q8.69-5.21,17.89-9.6L186.33,97.53l-6.74-16.72Zm-43,34.09a212.84,212.84,0,0,1,23.34-20.67L172.73,63.67,165,44.41Zm355.58,91.4h-13.1c-33.11-90.5-100.48-143-190.86-143-58.49,0-110.43,26.51-149,65.09C32,343.72,12.63,398.13,12.63,398.13H0L164.51,10.35,262.24,250.7c5.34,1.51,10.61,3.19,15.77,5.1L177.87,10.35h13.37l103.4,252.46q9.17,4.33,17.84,9.49l-107.89-262h13.36L332,285.41C347,297.22,355,306.35,355,306.35L231.3,10.35h13.36Z"/></svg>