<svg id="Layer_4" data-name="Layer 4" xmlns="http://www.w3.org/2000/svg" viewBox="0 0 100 100"><title>Artboard 1</title><path d="M35.18,43.8a11.85,11.85,0,0,0,8.35-3.61,13.1,13.1,0,0,0,2.07-5A40.91,40.91,0,0,0,45.88,31,33.41,33.41,0,0,0,42,15.82a16.93,16.93,0,0,0-4.74-6,12.26,12.26,0,0,0-6.9-2.3,11.17,11.17,0,0,0-8.57,4.16,15.59,15.59,0,0,0-2.76,9.43,30.06,30.06,0,0,0,4,14.33,19.65,19.65,0,0,0,5,5.9,11.1,11.1,0,0,0,7.06,2.42M52.87,81a12.38,12.38,0,0,0-3.15-8.41,76.29,76.29,0,0,0-10.43-8.36,26.84,26.84,0,0,0-2.85-.13,34.2,34.2,0,0,0-5,.25,54.32,54.32,0,0,0-8.06,1.79c-.65.26-1.55.62-2.73,1.12a16.85,16.85,0,0,0-3.58,2.3,13.2,13.2,0,0,0-3,3.84,11.38,11.38,0,0,0-1.39,5.82q0,6.7,6.06,11,5.76,4.34,15.76,4.46,9-.13,13.69-4A12,12,0,0,0,52.87,81M48,7.94a16.85,16.85,0,0,1,2.69,2.17,22.77,22.77,0,0,1,2.81,3.66,24.18,24.18,0,0,1,2.34,4.82,22.59,22.59,0,0,1,.84,6.5c-.07,4.54-1.08,8.17-3,10.89a32.33,32.33,0,0,1-3,3.66Q48.87,41.31,46.89,43a17.67,17.67,0,0,0-2.1,2.66,5.94,5.94,0,0,0-1.13,3.59,4.71,4.71,0,0,0,1.16,3.28,24.67,24.67,0,0,0,1.92,2.18L51,58.28a42.91,42.91,0,0,1,7,7.24C60,68.2,61,71.71,61.06,76q0,9.23-8.15,16.35Q44.47,99.76,28.52,100q-13.33-.12-19.91-5.68Q2,89.13,2,81.9A17.76,17.76,0,0,1,4.14,74q2.09-4.32,7.58-7.6a39.88,39.88,0,0,1,13-4.7,100.22,100.22,0,0,1,11.17-1.11,26.9,26.9,0,0,1-2.45-3.86A8.78,8.78,0,0,1,32.15,52a7.13,7.13,0,0,1,.47-2.8L33.39,47a35.35,35.35,0,0,1-4.08.25q-10.14-.12-15.45-6.38A19,19,0,0,1,8.3,27.32q0-9.35,7.88-17A27.66,27.66,0,0,1,27.43,4.54,54.36,54.36,0,0,1,38.25,3.36H63.63L55.79,7.94Z" style="fill:#26272f"/><polygon points="98.02 13.32 84.7 13.32 84.7 0 78.25 0 78.25 13.32 64.93 13.32 64.93 19.77 78.25 19.77 78.25 33.08 84.7 33.08 84.7 19.77 98.02 19.77 98.02 13.32" style="fill:#26272f"/></svg>