<svg id="Layer_2" data-name="Layer 2" xmlns="http://www.w3.org/2000/svg" viewBox="0 0 100 100"><title>soc-ig</title><g id="Layer_2-2" data-name="Layer 2"><g id="objects"><path d="M90,0H10A10,10,0,0,0,0,10V90a10,10,0,0,0,10,10H90a10,10,0,0,0,10-10h0V10A10,10,0,0,0,90,0ZM50,30A20,20,0,1,1,30,50,20,20,0,0,1,50,30ZM12.49,90A2.36,2.36,0,0,1,10,87.51V45H20.5A16.65,16.65,0,0,0,20,50a30,30,0,0,0,60,1.47q0-.73,0-1.47a16.74,16.74,0,0,0-.5-5H90V87.53A2.36,2.36,0,0,1,87.73,90H12.49ZM90,22.52A2.36,2.36,0,0,1,87.75,25H77.5A2.36,2.36,0,0,1,75,22.52v-10A2.36,2.36,0,0,1,77.24,10H87.51A2.36,2.36,0,0,1,90,12.51Z"/></g></g></svg>