<svg id="Layer_2" data-name="Layer 2" xmlns="http://www.w3.org/2000/svg" viewBox="0 0 100 100"><title>Artboard 1</title><path d="M100,18.94a41,41,0,0,1-11.78,3.24,20.62,20.62,0,0,0,9-11.37,41.21,41.21,0,0,1-13,5,20.52,20.52,0,0,0-35.49,14,20.9,20.9,0,0,0,.53,4.68A58.24,58.24,0,0,1,7,13.07,20.58,20.58,0,0,0,13.31,40.5,20.39,20.39,0,0,1,4,37.92c0,.09,0,.18,0,.26A20.55,20.55,0,0,0,20.47,58.33a20.68,20.68,0,0,1-9.26.35A20.54,20.54,0,0,0,30.37,72.95,41.14,41.14,0,0,1,4.89,81.74,41.72,41.72,0,0,1,0,81.45a58.06,58.06,0,0,0,31.45,9.23c37.74,0,58.38-31.31,58.38-58.45q0-1.34-.06-2.66A41.75,41.75,0,0,0,100,18.94" style="fill:#26272f"/></svg>